<svg xmlns="http://www.w3.org/2000/svg" viewBox="0 0 1600 1000" preserveAspectRatio="xMidYMid slice" role="img"><defs>
<linearGradient id="b" x1="0" y1="0" x2="1" y2="1"><stop offset="0" stop-color="#1A0033"/><stop offset="1" stop-color="#2A0A4A"/></linearGradient>
<radialGradient id="a" cx="50%" cy="50%" r="60%"><stop offset="0" stop-color="#FF8C00" stop-opacity=".55"/><stop offset="1" stop-color="#FF8C00" stop-opacity="0"/></radialGradient>
<filter id="s" x="-20%" y="-20%" width="140%" height="140%"><feGaussianBlur stdDeviation="60"/></filter>
<filter id="g"><feTurbulence type="fractalNoise" baseFrequency=".9" numOctaves="2" result="n"/><feColorMatrix in="n" type="matrix" values="0 0 0 0 1  0 0 0 0 1  0 0 0 0 1  0 0 0 .035 0"/></filter></defs><rect width="1600" height="1000" fill="url(#b)"/><circle cx="800" cy="560" r="300" fill="#FF8C00"/>
<rect x="500" y="430" width="600" height="22" fill="#1A0033"/><rect x="500" y="476" width="600" height="22" fill="#1A0033"/><rect x="500" y="522" width="600" height="22" fill="#1A0033"/><rect x="500" y="568" width="600" height="22" fill="#1A0033"/><rect x="500" y="614" width="600" height="22" fill="#1A0033"/><rect x="500" y="660" width="600" height="22" fill="#1A0033"/>
<g stroke="#FF8C00" stroke-opacity=".5"><line x1="800" y1="640" x2="-1300" y2="1000"/><line x1="800" y1="640" x2="-460" y2="1000"/><line x1="800" y1="640" x2="380" y2="1000"/><line x1="800" y1="640" x2="1220" y2="1000"/><line x1="800" y1="640" x2="2060" y2="1000"/><line x1="800" y1="640" x2="2900" y2="1000"/><line x1="0" y1="700" x2="1600" y2="700"/><line x1="0" y1="800" x2="1600" y2="800"/><line x1="0" y1="920" x2="1600" y2="920"/></g><rect width="1600" height="1000" filter="url(#g)" opacity=".5"/></svg>